<?xml version="1.0" encoding="UTF-8"?>
<svg version="1.1" viewBox="0 0 2016 1080" width="1280" height="1280" xmlns="http://www.w3.org/2000/svg">
<path transform="translate(526,294)" d="m0 0h306l6 2 6 7v34l-1 43-1 12-6 7-9 2-58 6-117 12-21 2-2 14-3 34v8l149 1 3-3 8 2 5 6 1 5v77l-3 7-5 4-8 2-73 10-75 10-7 1-1 31-1 25h192l7 2 7 8 1 43-1 60-8 7-66 4-64 3-51 3-119 6h-15l-8-7-2-7v-58l1-4 3-112 1-25 1-7 2-56 4-63 6-76 6-61 2-13 6-7zm132 47-2 3 1 4 2 2 5-1 2-6-3-2zm-2 17-1 4 4 4 5-1-1-4-5-3zm22 1 1 2zm27 0 4 1zm-28 2 1 3zm14 0-2 2v3l3-1 1-4zm5 0 1 3zm-1 3m-19 0-1 1h-6l1 5h6l1-1v-5zm17 1-1 2h3v-2zm-79 124-2 2 1 4 1 1h6l1-6-1-1zm171 5-4 3v5l5 3h4l1-11zm-180 55-4 5 2 6 6 1v-2h2l1-4-2-5zm5 12-1 2h2zm4 4-6 5-8-1-6-2-2 5v12l2 2 8 1-1-5 5-8h8l8-2v-6l-1-1zm-12 22m2 1 1 2 4 1-1-3zm54 152-3 2v7l4 2 8-1 1-5-2-4-2-1zm-84 1v14h6l2-7-2-6zm25 13-3 3 1 3 3 1 4-1-1-2-1-1h3l-1-3zm-44 1-5 1-1 3 3 4h8l1-4-4-4z" fill="#CFC0F0"/>
<path transform="translate(152,294)" d="m0 0h303l10 2 1 3h2l2 4v45l-1 33-1 11-5 7-9 2-128 13-61 6-9 1-3 36-2 20 145 1 3 1 3-3h7l6 4 3 6v82l-6 7-10 3-50 7-70 9-31 5-3 1-1 3-2 51 190 1 9 2 5 4 2 3 1 9v70l-1 25-5 5-4 2-65 4-64 3-50 3-118 6h-17l-7-6-2-3-1-6v-51l1-10 3-106 4-89 6-91 6-73 5-52 3-6 3-3zm132 47-1 4 1 5h5l3-5-2-4zm-1 17-2 2 1 4 4 2h3l1-5-5-3zm21 1v2h2v-2zm11 1v5l2 2h3l1-4-3-3zm-19 4-1 4 7 1 1-4-6 2zm-56 125-1 1v5l2 2 5-1 1-6zm171 5-5 2v7l4 2h6l1-1v-9zm-125 23-1 3 1 2 4-1v-3zm-56 32-2 6 2 6 5-2 3-2-1-5-3-3zm7 12 1 2 1-2zm1 3-2 5-7 2v-2l-7-1-3 2-1 9 3 6 12 7h4l-1-3-7-3-2-2 1-5 3-3 5-2 10-1 2-2-1-5-5-2zm45 176-2 1v7l3 3 8-1 1-1v-6l-3-3zm-82 1-1 1v13l5 1 2-2v-12l-1-1zm24 13-2 1 1 5 7-1 1-4-1-1zm-45 1-4 2 1 5 1 1h7l1-5-5-3z" fill="#CFC0F0"/>
<path transform="translate(1101,285)" d="m0 0h29l18 2 16 4 16 8 12 11 7 10 5 12 3 12v22l-5 20-9 19-10 16-29 43-11 17-10 15-29 43-17 26-56 84-4 10 39-6 29-6 32-9 36-12 10-1 6 4 4 5 2 5-2 50-1 43-1 19-3 4-14 5-30 8-35 8-41 7-31 4-26 2h-39l-26-4-21-7-17-9-11-9-8-8-8-14-4-13-1-7v-13l4-21 9-27 10-21 13-21 36-54 13-19 10-15 16-23 14-21 16-23 18-27 5-9 2-4-124 26-6 1h-9l-6-5-3-7v-40l1-4 1-50 1-18 5-6 8-3 36-6 87-13 49-7zm-198 44v4h2l-1-4zm52 48-3 5 2 7 5 2 4-2v-10l-3-2zm16 5-2 5v4l7-1 1-4-1-4zm25 0v4l4 2 4-1v-4l-2-1zm-28 12-2 1 2 7 7 2h11v-5l-4-3zm30 8-3 1v5l6 3h6l2-3v-5l-2-1zm64 47-1 4 3 2 2-2-1-4z" fill="#CFC0F0"/>
<path transform="translate(1324,285)" d="m0 0h6l6 7 5 11 13 34 19 49 16 43 16 41 4 7v2h2l1-6 13-33 16-39 18-42 15-36 12-27 6-7 2-1 23 1 52 6 19 3 5 3 3 4 1 3v8l-4 11-10 25-14 36-14 34-18 44-11 28-12 29-12 30-17 42-12 29-6 15-1 10-3 63-1 43-1 24-4 7-2 2-5 1h-104l-6-4-3-5v-19l6-63 3-32v-17l-16-43-19-53-20-57-18-50-14-40-13-34-10-28-4-15v-6l6-7 21-9 45-16zm183 19-4 3 1 5 18 7 6 2 14 1 39 13 4-1 3-9-2-4-3-2-8-1-10-1-11-6h-7v4l-11-4h-3v-2l-10-4-4-1zm-232 10-7 2-2 3 4 5 7-1 4-4-1-4zm136 167m1 1 1 3h2l-1-3zm2 22 1 5h3l1-4zm4 13-1 5 1 2h4l1-5-2-2zm-21 17-1 4 10 7 4-1-1-5-7-3zm75 0-1 2 1 2 4-2-1-2zm-3 18-4 4-3 9 2 5 2 2h3l2-7 4-2-1-8zm-21 62-7 3-1 3v41l1 17 1 1v16l-1 22-2 3 1 22 1 3 4 2h8l1-8v-107l-1-17z" fill="#CFC0F0"/>
<path transform="translate(1717,285)" d="m0 0h5l5 5 6 13 18 47 10 26 11 29 16 43 10 24 4 6 15-38 6-15 11-26 12-28 12-29 13-31 8-17 7-6 22 1 53 6 18 3 6 3 3 5 1 2v8l-4 11-8 19-16 41-20 49-12 30-19 47-15 37-16 40-13 31-7 18-1 4-2 38-3 96-3 7-4 4-7 1h-100l-6-3-3-4-1-3v-19l6-61 2-18 1-15v-17l-9-24-17-47-15-42-22-62-15-42-13-36-11-29-11-33-1-4v-7l5-6 14-7 38-14 27-9zm183 18-5 3 1 6 18 7 6 2 18 2 34 12 5-1 2-4 1-7-2-3-11-2-3 1-8-3-10-5h-7v3l-7-1-3-2h-4l-1-3-14-4zm-236 12-3 2 1 4h7l3-4-2-2zm140 167 2 4 2-1-1-3zm3 21-2 3 2 4 6-2-1-4zm5 14-4 4 1 3 3 1 4-3v-5zm53 16-2 4 4 1 1-4zm-76 1v4l8 6h5l1-5-8-2-3-3zm71 18-4 6-1 3v7l4 5h2l1-3v-5l5-2-1-7-4-4zm-20 62-7 2-1 4v56l2 6-1 31-2 7 1 22 5 5h8l1-16v-116l-1-1z" fill="#CFC0F0"/>
<path transform="translate(285,362)" d="m0 0" fill="#CFC0F0"/>
<path transform="translate(317,362)" d="m0 0" fill="#CFC0F0"/>
<path transform="translate(286,361)" d="m0 0" fill="#FEFEFE"/>
</svg>
